<svg viewBox="0 0 800 300" xmlns="http://www.w3.org/2000/svg">
  <!-- Title -->
  <text x="400" y="25" font-size="18" font-weight="bold" text-anchor="middle" fill="#333">Term-Document Matrix (Bag of Words)</text>
  
  <!-- Column headers (documents) -->
  <text x="80" y="70" font-size="12" text-anchor="middle" fill="#666">Doc 1</text>
  <text x="160" y="70" font-size="12" text-anchor="middle" fill="#666">Doc 2</text>
  <text x="240" y="70" font-size="12" text-anchor="middle" fill="#666">Doc 3</text>
  <text x="320" y="70" font-size="12" text-anchor="middle" fill="#666">Doc 4</text>
  <text x="400" y="70" font-size="12" text-anchor="middle" fill="#666">Doc 5</text>
  
  <!-- Row headers (terms) -->
  <text x="10" y="110" font-size="12" text-anchor="end" fill="#666">making</text>
  <text x="10" y="150" font-size="12" text-anchor="end" fill="#666">pizza</text>
  <text x="10" y="190" font-size="12" text-anchor="end" fill="#666">without</text>
  <text x="10" y="230" font-size="12" text-anchor="end" fill="#666">a</text>
  <text x="10" y="270" font-size="12" text-anchor="end" fill="#666">oven</text>
  
  <!-- Grid cells with values -->
  <!-- making row -->
  <rect x="60" y="95" width="40" height="35" fill="#e8f5e9" stroke="#4caf50" stroke-width="1"/>
  <text x="80" y="120" font-size="14" text-anchor="middle" font-weight="bold" fill="#2e7d32">1</text>
  
  <rect x="140" y="95" width="40" height="35" fill="#f3e5f5" stroke="#999" stroke-width="1"/>
  <text x="160" y="120" font-size="14" text-anchor="middle" fill="#666">0</text>
  
  <rect x="220" y="95" width="40" height="35" fill="#f3e5f5" stroke="#999" stroke-width="1"/>
  <text x="240" y="120" font-size="14" text-anchor="middle" fill="#666">0</text>
  
  <rect x="300" y="95" width="40" height="35" fill="#e8f5e9" stroke="#4caf50" stroke-width="1"/>
  <text x="320" y="120" font-size="14" text-anchor="middle" font-weight="bold" fill="#2e7d32">1</text>
  
  <rect x="380" y="95" width="40" height="35" fill="#e8f5e9" stroke="#4caf50" stroke-width="1"/>
  <text x="400" y="120" font-size="14" text-anchor="middle" font-weight="bold" fill="#2e7d32">1</text>
  
  <!-- pizza row -->
  <rect x="60" y="135" width="40" height="35" fill="#e8f5e9" stroke="#4caf50" stroke-width="1"/>
  <text x="80" y="160" font-size="14" text-anchor="middle" font-weight="bold" fill="#2e7d32">1</text>
  
  <rect x="140" y="135" width="40" height="35" fill="#e8f5e9" stroke="#4caf50" stroke-width="1"/>
  <text x="160" y="160" font-size="14" text-anchor="middle" font-weight="bold" fill="#2e7d32">1</text>
  
  <rect x="220" y="135" width="40" height="35" fill="#f3e5f5" stroke="#999" stroke-width="1"/>
  <text x="240" y="160" font-size="14" text-anchor="middle" fill="#666">0</text>
  
  <rect x="300" y="135" width="40" height="35" fill="#e8f5e9" stroke="#4caf50" stroke-width="1"/>
  <text x="320" y="160" font-size="14" text-anchor="middle" font-weight="bold" fill="#2e7d32">1</text>
  
  <rect x="380" y="135" width="40" height="35" fill="#e8f5e9" stroke="#4caf50" stroke-width="1"/>
  <text x="400" y="160" font-size="14" text-anchor="middle" font-weight="bold" fill="#2e7d32">1</text>
  
  <!-- without row -->
  <rect x="60" y="175" width="40" height="35" fill="#e8f5e9" stroke="#4caf50" stroke-width="1"/>
  <text x="80" y="200" font-size="14" text-anchor="middle" font-weight="bold" fill="#2e7d32">1</text>
  
  <rect x="140" y="175" width="40" height="35" fill="#e8f5e9" stroke="#4caf50" stroke-width="1"/>
  <text x="160" y="200" font-size="14" text-anchor="middle" font-weight="bold" fill="#2e7d32">1</text>
  
  <rect x="220" y="175" width="40" height="35" fill="#e8f5e9" stroke="#4caf50" stroke-width="1"/>
  <text x="240" y="200" font-size="14" text-anchor="middle" font-weight="bold" fill="#2e7d32">1</text>
  
  <rect x="300" y="175" width="40" height="35" fill="#e8f5e9" stroke="#4caf50" stroke-width="1"/>
  <text x="320" y="200" font-size="14" text-anchor="middle" font-weight="bold" fill="#2e7d32">1</text>
  
  <rect x="380" y="175" width="40" height="35" fill="#e8f5e9" stroke="#4caf50" stroke-width="1"/>
  <text x="400" y="200" font-size="14" text-anchor="middle" font-weight="bold" fill="#2e7d32">1</text>
  
  <!-- a row -->
  <rect x="60" y="215" width="40" height="35" fill="#f3e5f5" stroke="#999" stroke-width="1"/>
  <text x="80" y="240" font-size="14" text-anchor="middle" fill="#666">0</text>
  
  <rect x="140" y="215" width="40" height="35" fill="#e8f5e9" stroke="#4caf50" stroke-width="1"/>
  <text x="160" y="240" font-size="14" text-anchor="middle" font-weight="bold" fill="#2e7d32">1</text>
  
  <rect x="220" y="215" width="40" height="35" fill="#e8f5e9" stroke="#4caf50" stroke-width="1"/>
  <text x="240" y="240" font-size="14" text-anchor="middle" font-weight="bold" fill="#2e7d32">1</text>
  
  <rect x="300" y="215" width="40" height="35" fill="#e8f5e9" stroke="#4caf50" stroke-width="1"/>
  <text x="320" y="240" font-size="14" text-anchor="middle" font-weight="bold" fill="#2e7d32">1</text>
  
  <rect x="380" y="215" width="40" height="35" fill="#e8f5e9" stroke="#4caf50" stroke-width="1"/>
  <text x="400" y="240" font-size="14" text-anchor="middle" font-weight="bold" fill="#2e7d32">1</text>
  
  <!-- oven row -->
  <rect x="60" y="255" width="40" height="35" fill="#f3e5f5" stroke="#999" stroke-width="1"/>
  <text x="80" y="280" font-size="14" text-anchor="middle" fill="#666">0</text>
  
  <rect x="140" y="255" width="40" height="35" fill="#e8f5e9" stroke="#4caf50" stroke-width="1"/>
  <text x="160" y="280" font-size="14" text-anchor="middle" font-weight="bold" fill="#2e7d32">1</text>
  
  <rect x="220" y="255" width="40" height="35" fill="#e8f5e9" stroke="#4caf50" stroke-width="1"/>
  <text x="240" y="280" font-size="14" text-anchor="middle" font-weight="bold" fill="#2e7d32">1</text>
  
  <rect x="300" y="255" width="40" height="35" fill="#e8f5e9" stroke="#4caf50" stroke-width="1"/>
  <text x="320" y="280" font-size="14" text-anchor="middle" font-weight="bold" fill="#2e7d32">1</text>
  
  <rect x="380" y="255" width="40" height="35" fill="#e8f5e9" stroke="#4caf50" stroke-width="1"/>
  <text x="400" y="280" font-size="14" text-anchor="middle" font-weight="bold" fill="#2e7d32">1</text>
  
  <!-- Legend -->
  <rect x="480" y="95" width="20" height="20" fill="#e8f5e9" stroke="#4caf50" stroke-width="1"/>
  <text x="510" y="110" font-size="12" fill="#333">Term present in doc</text>
  
  <rect x="480" y="125" width="20" height="20" fill="#f3e5f5" stroke="#999" stroke-width="1"/>
  <text x="510" y="140" font-size="12" fill="#333">Term absent (0)</text>
</svg>
