<svg viewBox="0 0 850 350" xmlns="http://www.w3.org/2000/svg">
  <!-- Title -->
  <text x="425" y="25" font-size="14" font-weight="bold" text-anchor="middle" fill="#333">TF-IDF Scoring Progression</text>
  
  <!-- Column headers -->
  <text x="100" y="60" font-size="11" font-weight="bold" text-anchor="middle" fill="#333">Term</text>
  <text x="160" y="60" font-size="11" font-weight="bold" text-anchor="middle" fill="#333">Rarity (IDF)</text>
  <text x="260" y="60" font-size="11" font-weight="bold" text-anchor="middle" fill="#333">Doc 1 TF</text>
  <text x="340" y="60" font-size="11" font-weight="bold" text-anchor="middle" fill="#333">Doc 1 Score</text>
  <text x="480" y="60" font-size="11" font-weight="bold" text-anchor="middle" fill="#333">Doc 2 TF</text>
  <text x="560" y="60" font-size="11" font-weight="bold" text-anchor="middle" fill="#333">Doc 2 Score</text>
  <text x="700" y="60" font-size="11" font-weight="bold" text-anchor="middle" fill="#333">Doc 3 TF</text>
  <text x="780" y="60" font-size="11" font-weight="bold" text-anchor="middle" fill="#333">Doc 3 Score</text>
  
  <!-- Divider -->
  <line x1="10" y1="70" x2="840" y2="70" stroke="#ddd" stroke-width="1"/>
  
  <!-- making row -->
  <text x="100" y="100" font-size="11" text-anchor="middle" fill="#333">making</text>
  <rect x="140" y="85" width="40" height="20" fill="#fff9c4" stroke="#fbc02d" stroke-width="1" rx="2"/>
  <text x="160" y="100" font-size="10" text-anchor="middle" fill="#333">0.4</text>
  
  <rect x="235" y="85" width="50" height="20" fill="#f3e5f5" stroke="#bbb" stroke-width="1" rx="2"/>
  <text x="260" y="100" font-size="10" text-anchor="middle" fill="#333">0.3</text>
  
  <rect x="310" y="85" width="60" height="20" fill="#ffe0b2" stroke="#ff9800" stroke-width="1" rx="2"/>
  <text x="340" y="100" font-size="10" text-anchor="middle" fill="#333">0.12</text>
  
  <rect x="450" y="85" width="60" height="20" fill="#f3e5f5" stroke="#bbb" stroke-width="1" rx="2"/>
  <text x="480" y="100" font-size="10" text-anchor="middle" fill="#333">0.0</text>
  
  <rect x="530" y="85" width="60" height="20" fill="#f3e5f5" stroke="#bbb" stroke-width="1" rx="2"/>
  <text x="560" y="100" font-size="10" text-anchor="middle" fill="#333">0.0</text>
  
  <rect x="670" y="85" width="60" height="20" fill="#fff9c4" stroke="#fbc02d" stroke-width="1" rx="2"/>
  <text x="700" y="100" font-size="10" text-anchor="middle" fill="#333">0.5</text>
  
  <rect x="750" y="85" width="60" height="20" fill="#ffe0b2" stroke="#ff9800" stroke-width="1" rx="2"/>
  <text x="780" y="100" font-size="10" text-anchor="middle" fill="#333">0.20</text>
  
  <!-- pizza row -->
  <text x="100" y="145" font-size="11" text-anchor="middle" fill="#333">pizza</text>
  <rect x="140" y="130" width="40" height="20" fill="#c8e6c9" stroke="#4caf50" stroke-width="2" rx="2"/>
  <text x="160" y="145" font-size="10" font-weight="bold" text-anchor="middle" fill="#1b5e20">0.7</text>
  
  <rect x="235" y="130" width="50" height="20" fill="#e8f5e9" stroke="#4caf50" stroke-width="1" rx="2"/>
  <text x="260" y="145" font-size="10" text-anchor="middle" fill="#333">0.2</text>
  
  <rect x="310" y="130" width="60" height="20" fill="#c8e6c9" stroke="#4caf50" stroke-width="2" rx="2"/>
  <text x="340" y="145" font-size="10" font-weight="bold" text-anchor="middle" fill="#1b5e20">0.14</text>
  
  <rect x="450" y="130" width="60" height="20" fill="#e8f5e9" stroke="#4caf50" stroke-width="1" rx="2"/>
  <text x="480" y="145" font-size="10" text-anchor="middle" fill="#333">0.1</text>
  
  <rect x="530" y="130" width="60" height="20" fill="#e8f5e9" stroke="#4caf50" stroke-width="1" rx="2"/>
  <text x="560" y="145" font-size="10" text-anchor="middle" fill="#333">0.07</text>
  
  <rect x="670" y="130" width="60" height="20" fill="#f3e5f5" stroke="#bbb" stroke-width="1" rx="2"/>
  <text x="700" y="145" font-size="10" text-anchor="middle" fill="#333">0.0</text>
  
  <rect x="750" y="130" width="60" height="20" fill="#f3e5f5" stroke="#bbb" stroke-width="1" rx="2"/>
  <text x="780" y="145" font-size="10" text-anchor="middle" fill="#333">0.0</text>
  
  <!-- without row -->
  <text x="100" y="190" font-size="11" text-anchor="middle" fill="#333">without</text>
  <rect x="140" y="175" width="40" height="20" fill="#f3e5f5" stroke="#bbb" stroke-width="1" rx="2"/>
  <text x="160" y="190" font-size="10" text-anchor="middle" fill="#666">0.2</text>
  
  <rect x="235" y="175" width="50" height="20" fill="#f3e5f5" stroke="#bbb" stroke-width="1" rx="2"/>
  <text x="260" y="190" font-size="10" text-anchor="middle" fill="#666">0.8</text>
  
  <rect x="310" y="175" width="60" height="20" fill="#f3e5f5" stroke="#bbb" stroke-width="1" rx="2"/>
  <text x="340" y="190" font-size="10" text-anchor="middle" fill="#666">0.16</text>
  
  <rect x="450" y="175" width="60" height="20" fill="#f3e5f5" stroke="#bbb" stroke-width="1" rx="2"/>
  <text x="480" y="190" font-size="10" text-anchor="middle" fill="#666">0.6</text>
  
  <rect x="530" y="175" width="60" height="20" fill="#f3e5f5" stroke="#bbb" stroke-width="1" rx="2"/>
  <text x="560" y="190" font-size="10" text-anchor="middle" fill="#666">0.12</text>
  
  <rect x="670" y="175" width="60" height="20" fill="#f3e5f5" stroke="#bbb" stroke-width="1" rx="2"/>
  <text x="700" y="190" font-size="10" text-anchor="middle" fill="#666">0.7</text>
  
  <rect x="750" y="175" width="60" height="20" fill="#f3e5f5" stroke="#bbb" stroke-width="1" rx="2"/>
  <text x="780" y="190" font-size="10" text-anchor="middle" fill="#666">0.14</text>
  
  <!-- a row -->
  <text x="100" y="235" font-size="11" text-anchor="middle" fill="#333">a</text>
  <rect x="140" y="220" width="40" height="20" fill="#f3e5f5" stroke="#bbb" stroke-width="1" rx="2"/>
  <text x="160" y="235" font-size="10" text-anchor="middle" fill="#666">0.1</text>
  
  <rect x="235" y="220" width="50" height="20" fill="#f3e5f5" stroke="#bbb" stroke-width="1" rx="2"/>
  <text x="260" y="235" font-size="10" text-anchor="middle" fill="#666">0.6</text>
  
  <rect x="310" y="220" width="60" height="20" fill="#f3e5f5" stroke="#bbb" stroke-width="1" rx="2"/>
  <text x="340" y="235" font-size="10" text-anchor="middle" fill="#666">0.06</text>
  
  <rect x="450" y="220" width="60" height="20" fill="#f3e5f5" stroke="#bbb" stroke-width="1" rx="2"/>
  <text x="480" y="235" font-size="10" text-anchor="middle" fill="#666">0.5</text>
  
  <rect x="530" y="220" width="60" height="20" fill="#f3e5f5" stroke="#bbb" stroke-width="1" rx="2"/>
  <text x="560" y="235" font-size="10" text-anchor="middle" fill="#666">0.05</text>
  
  <rect x="670" y="220" width="60" height="20" fill="#f3e5f5" stroke="#bbb" stroke-width="1" rx="2"/>
  <text x="700" y="235" font-size="10" text-anchor="middle" fill="#666">0.6</text>
  
  <rect x="750" y="220" width="60" height="20" fill="#f3e5f5" stroke="#bbb" stroke-width="1" rx="2"/>
  <text x="780" y="235" font-size="10" text-anchor="middle" fill="#666">0.06</text>
  
  <!-- oven row -->
  <text x="100" y="280" font-size="11" text-anchor="middle" fill="#333">oven</text>
  <rect x="140" y="265" width="40" height="20" fill="#c8e6c9" stroke="#4caf50" stroke-width="2" rx="2"/>
  <text x="160" y="280" font-size="10" font-weight="bold" text-anchor="middle" fill="#1b5e20">0.2</text>
  
  <rect x="235" y="265" width="50" height="20" fill="#e8f5e9" stroke="#4caf50" stroke-width="1" rx="2"/>
  <text x="260" y="280" font-size="10" text-anchor="middle" fill="#333">0.6</text>
  
  <rect x="310" y="265" width="60" height="20" fill="#c8e6c9" stroke="#4caf50" stroke-width="2" rx="2"/>
  <text x="340" y="280" font-size="10" font-weight="bold" text-anchor="middle" fill="#1b5e20">0.12</text>
  
  <rect x="450" y="265" width="60" height="20" fill="#e8f5e9" stroke="#4caf50" stroke-width="1" rx="2"/>
  <text x="480" y="280" font-size="10" text-anchor="middle" fill="#333">0.8</text>
  
  <rect x="530" y="265" width="60" height="20" fill="#e8f5e9" stroke="#4caf50" stroke-width="1" rx="2"/>
  <text x="560" y="280" font-size="10" text-anchor="middle" fill="#333">0.16</text>
  
  <rect x="670" y="265" width="60" height="20" fill="#e8f5e9" stroke="#4caf50" stroke-width="1" rx="2"/>
  <text x="700" y="280" font-size="10" text-anchor="middle" fill="#333">0.5</text>
  
  <rect x="750" y="265" width="60" height="20" fill="#e8f5e9" stroke="#4caf50" stroke-width="1" rx="2"/>
  <text x="780" y="280" font-size="10" text-anchor="middle" fill="#333">0.10</text>
  
  <!-- Totals row -->
  <line x1="10" y1="305" x2="840" y2="305" stroke="#ddd" stroke-width="1"/>
  
  <text x="100" y="330" font-size="11" font-weight="bold" text-anchor="middle" fill="#333">TOTAL SCORE</text>
  <rect x="230" y="315" width="70" height="25" fill="#e8f5e9" stroke="#4caf50" stroke-width="2" rx="3"/>
  <text x="265" y="335" font-size="11" font-weight="bold" text-anchor="middle" fill="#1b5e20">0.60</text>
  
  <rect x="450" y="315" width="70" height="25" fill="#f3e5f5" stroke="#ccc" stroke-width="1" rx="3"/>
  <text x="485" y="335" font-size="11" text-anchor="middle" fill="#666">0.40</text>
  
  <rect x="670" y="315" width="70" height="25" fill="#f3e5f5" stroke="#ccc" stroke-width="1" rx="3"/>
  <text x="705" y="335" font-size="11" text-anchor="middle" fill="#666">0.50</text>
</svg>
