<svg viewBox="0 0 900 250" xmlns="http://www.w3.org/2000/svg">
  <!-- Title -->
  <text x="450" y="25" font-size="18" font-weight="bold" text-anchor="middle" fill="#222">Hyperparameter Impact on BM25 Scoring</text>
  
  <!-- k1 parameter chart -->
  <g id="k1-chart">
    <text x="220" y="55" font-size="13" font-weight="bold" fill="#222">Tuning $k_1$ (TF Saturation)</text>
    
    <line x1="80" y1="220" x2="80" y2="70" stroke="#333" stroke-width="2"/>
    <line x1="80" y1="220" x2="280" y2="220" stroke="#333" stroke-width="2"/>
    
    <text x="40" y="225" font-size="11" fill="#555">Score</text>
    <text x="160" y="245" font-size="11" fill="#555">Term Freq</text>
    
    <!-- Grid -->
    <line x1="75" y1="175" x2="280" y2="175" stroke="#eee" stroke-width="1"/>
    <text x="65" y="180" font-size="9" fill="#999">0.5</text>
    
    <line x1="75" y1="130" x2="280" y2="130" stroke="#eee" stroke-width="1"/>
    <text x="65" y="135" font-size="9" fill="#999">1.0</text>
    
    <!-- X-axis ticks -->
    <line x1="110" y1="218" x2="110" y2="224"/>
    <text x="105" y="238" font-size="9" fill="#555">5</text>
    
    <line x1="170" y1="218" x2="170" y2="224"/>
    <text x="165" y="238" font-size="9" fill="#555">15</text>
    
    <line x1="230" y1="218" x2="230" y2="224"/>
    <text x="225" y="238" font-size="9" fill="#555">25</text>
    
    <!-- k1=0.5 (steep saturation) -->
    <polyline points="110,190 170,145 230,125" fill="none" stroke="#FF9800" stroke-width="2.5"/>
    <text x="245" y="125" font-size="10" fill="#FF9800">k₁=0.5 (steep)</text>
    
    <!-- k1=1.5 (standard) -->
    <polyline points="110,170 170,120 230,110" fill="none" stroke="#2196F3" stroke-width="3"/>
    <text x="245" y="110" font-size="10" fill="#2196F3">k₁=1.5</text>
    
    <!-- k1=3.0 (gentle) -->
    <polyline points="110,155 170,110 230,95" fill="none" stroke="#4CAF50" stroke-width="2.5"/>
    <text x="245" y="95" font-size="10" fill="#4CAF50">k₁=3.0 (gentle)</text>
  </g>
  
  <!-- b parameter chart -->
  <g id="b-chart">
    <text x="670" y="55" font-size="13" font-weight="bold" fill="#222">Tuning $b$ (Length Normalization)</text>
    
    <line x1="530" y1="220" x2="530" y2="70" stroke="#333" stroke-width="2"/>
    <line x1="530" y1="220" x2="730" y2="220" stroke="#333" stroke-width="2"/>
    
    <text x="490" y="225" font-size="11" fill="#555">Score</text>
    <text x="610" y="245" font-size="11" fill="#555">Doc Length</text>
    
    <!-- Grid -->
    <line x1="525" y1="175" x2="730" y2="175" stroke="#eee" stroke-width="1"/>
    <text x="515" y="180" font-size="9" fill="#999">0.5</text>
    
    <line x1="525" y1="130" x2="730" y2="130" stroke="#eee" stroke-width="1"/>
    <text x="515" y="135" font-size="9" fill="#999">1.0</text>
    
    <!-- X-axis ticks -->
    <line x1="560" y1="218" x2="560" y2="224"/>
    <text x="550" y="238" font-size="9" fill="#555">500w</text>
    
    <line x1="620" y1="218" x2="620" y2="224"/>
    <text x="610" y="238" font-size="9" fill="#555">1500w</text>
    
    <line x1="680" y1="218" x2="680" y2="224"/>
    <text x="670" y="238" font-size="9" fill="#555">3000w</text>
    
    <!-- b=0 (no length penalty) -->
    <polyline points="560,175 620,175 680,175" fill="none" stroke="#FF9800" stroke-width="2.5"/>
    <text x="695" y="175" font-size="10" fill="#FF9800">b=0 (none)</text>
    
    <!-- b=0.75 (standard) -->
    <polyline points="560,175 620,145 680,135" fill="none" stroke="#2196F3" stroke-width="3"/>
    <text x="695" y="135" font-size="10" fill="#2196F3">b=0.75</text>
    
    <!-- b=1.0 (full) -->
    <polyline points="560,175 620,130 680,105" fill="none" stroke="#4CAF50" stroke-width="2.5"/>
    <text x="695" y="105" font-size="10" fill="#4CAF50">b=1.0 (full)</text>
  </g>
</svg>
